<?xml version="1.0" encoding="UTF-8" standalone="no"?>
<!DOCTYPE svg PUBLIC "-//W3C//DTD SVG 1.1//EN" "http://www.w3.org/Graphics/SVG/1.1/DTD/svg11.dtd">
<svg width="100%" height="100%" viewBox="0 0 512 512" version="1.1" xmlns="http://www.w3.org/2000/svg" xmlns:xlink="http://www.w3.org/1999/xlink" xml:space="preserve" xmlns:serif="http://www.serif.com/" style="fill-rule:evenodd;clip-rule:evenodd;stroke-linejoin:round;stroke-miterlimit:2;">
    <g transform="matrix(1,0,0,1,-1946,0)">
        <g id="Artboard1" transform="matrix(0.927536,0,0,1.12527,2740.9,-14940.3)">
            <rect x="-857" y="13277" width="552" height="455" style="fill:none;"/>
            <clipPath id="_clip1">
                <rect x="-857" y="13277" width="552" height="455"/>
            </clipPath>
            <g clip-path="url(#_clip1)">
                <g transform="matrix(-1.07812,1.08831e-16,-1.32032e-16,-0.888672,-305,25530.9)">
                    <path d="M427.773,13277C474.29,13277 512,13314.7 512,13361.2L512,13704.8C512,13751.3 474.29,13789 427.773,13789L84.227,13789C37.71,13789 0,13751.3 0,13704.8L0,13361.2C0,13314.7 37.71,13277 84.227,13277L427.773,13277Z" style="fill:url(#_Linear2);"/>
                </g>
                <g transform="matrix(0.950988,0,0,0.783876,-964.657,13222.6)">
                    <path d="M403.43,302.459L403.436,302.469L409.005,294.139C438.516,249.859 490.505,231.239 541.435,246.619C592.375,262.049 625.285,306.389 625.285,359.629C625.285,412.839 592.375,457.179 541.455,472.619C529.565,476.209 517.645,477.939 505.965,477.939C469.605,477.939 435.575,461.069 412.835,430.529L450.905,373.679L461.745,389.939C478.335,414.819 504.355,417.649 523.065,411.929C541.846,406.259 561.905,389.529 561.905,359.629C561.905,329.709 541.846,312.969 523.065,307.299C504.205,301.559 478.315,304.429 461.745,329.299L441.525,359.609L403.436,416.759L397.885,425.099C368.315,469.399 316.335,488.069 265.415,472.599C214.495,457.179 181.575,412.839 181.575,359.629C181.575,306.409 214.495,262.049 265.415,246.639C314.244,231.788 363.861,248.306 393.939,288.553L355.969,345.524L345.146,329.299C333.095,311.239 316.135,304.799 300.555,304.799C294.655,304.799 288.955,305.729 283.795,307.299C265.025,312.969 244.965,329.709 244.965,359.629C244.965,389.529 265.025,406.259 283.775,411.929C302.615,417.669 328.555,414.799 345.146,389.939L365.365,359.609L365.033,359.111C365.176,359.145 365.287,359.209 365.36,359.307L403.43,302.459Z" style="fill:white;"/>
                </g>
            </g>
        </g>
    </g>
    <defs>
        <linearGradient id="_Linear2" x1="0" y1="0" x2="1" y2="0" gradientUnits="userSpaceOnUse" gradientTransform="matrix(-512,-512,512,-512,512,13789)"><stop offset="0" style="stop-color:rgb(0,0,122);stop-opacity:1"/><stop offset="0.3" style="stop-color:rgb(187,26,112);stop-opacity:1"/><stop offset="0.6" style="stop-color:rgb(255,182,7);stop-opacity:1"/><stop offset="1" style="stop-color:rgb(164,204,57);stop-opacity:1"/></linearGradient>
    </defs>
</svg>
