<?xml version="1.0" encoding="UTF-8" standalone="no"?>
<!DOCTYPE svg PUBLIC "-//W3C//DTD SVG 1.1//EN" "http://www.w3.org/Graphics/SVG/1.1/DTD/svg11.dtd">
<svg width="100%" height="100%" viewBox="0 0 512 512" version="1.1" xmlns="http://www.w3.org/2000/svg" xmlns:xlink="http://www.w3.org/1999/xlink" xml:space="preserve" xmlns:serif="http://www.serif.com/" style="fill-rule:evenodd;clip-rule:evenodd;stroke-linejoin:round;stroke-miterlimit:2;">
    <g transform="matrix(1,0,0,1,-3848,-583)">
        <g id="Artboard1" transform="matrix(0.927536,0,0,1.12527,4642.9,-14357.3)">
            <rect x="-857" y="13277" width="552" height="455" style="fill:none;"/>
            <clipPath id="_clip1">
                <rect x="-857" y="13277" width="552" height="455"/>
            </clipPath>
            <g clip-path="url(#_clip1)">
                <g transform="matrix(-1.07812,1.08831e-16,-1.32032e-16,-0.888672,-306.078,25530)">
                    <path d="M427.773,13277C474.29,13277 512,13314.7 512,13361.2L512,13704.8C512,13751.3 474.29,13789 427.773,13789C332.784,13789 179.216,13789 84.227,13789C37.71,13789 0,13751.3 0,13704.8L0,13361.2C0,13314.7 37.71,13277 84.227,13277L427.773,13277Z" style="fill:rgb(0,0,122);"/>
                </g>
                <g transform="matrix(2.55946,0,0,2.1097,-12728.2,11992.9)">
                    <g transform="matrix(1,0,0,1,4495.7,562.461)">
                        <path d="M233.322,116.643C233.721,122.395 240.293,125.544 245.043,122.277C249.221,119.4 254.924,122.396 254.924,127.473L254.924,148.359L270.571,148.359C267.792,137.012 276.789,125.957 288.757,126.784C299.286,127.513 307.095,137.652 304.465,148.359L320.27,148.359C333.495,128.364 320.176,99.435 294.405,98.112C297.319,82.723 285.454,68.539 269.904,68.539C264.287,68.539 259.097,70.406 254.924,73.551L254.924,104.723C254.924,109.796 249.225,112.797 245.042,109.919C239.959,106.423 232.882,110.285 233.322,116.643Z" style="fill:url(#_Linear2);fill-rule:nonzero;"/>
                    </g>
                    <g transform="matrix(1,0,0,1,4495.56,562.487)">
                        <path d="M200.993,148.359C206.067,148.359 209.067,154.06 206.189,158.242C202.708,163.299 206.53,170.399 212.915,169.958C218.68,169.558 221.814,162.982 218.55,158.241C215.673,154.06 218.671,148.359 223.746,148.359L244.968,148.359L244.968,133.039C234.237,135.675 224.118,127.837 223.389,117.332C222.563,105.415 233.571,96.359 244.968,99.149L244.968,73.552C227.102,60.087 201.508,75.461 205.428,97.783C179.504,99.16 166.384,128.151 179.723,148.359L200.993,148.359Z" style="fill:url(#_Linear3);fill-rule:nonzero;"/>
                    </g>
                    <g transform="matrix(1,0,0,1,4495.07,562.303)">
                        <path d="M320.103,158.316L298.899,158.316C293.823,158.316 290.826,152.614 293.703,148.434C296.969,143.691 293.827,137.116 288.068,136.717C281.684,136.274 277.86,143.373 281.342,148.433C284.22,152.615 281.222,158.316 276.146,158.316L254.925,158.316L254.925,173.627C266.289,170.845 277.332,179.864 276.503,191.81C275.774,202.319 265.652,210.151 254.925,207.517L254.925,233.456C272.791,246.921 298.385,231.547 294.465,209.226C319.766,207.881 333.83,179.495 320.103,158.316Z" style="fill:url(#_Linear4);fill-rule:nonzero;"/>
                    </g>
                    <g transform="matrix(1,0,0,1,4495.56,562.684)">
                        <path d="M266.57,191.121C267.01,184.766 259.933,180.9 254.85,184.398C250.67,187.273 244.968,184.279 244.968,179.202L244.968,158.316L229.312,158.316C232.022,169.345 223.622,179.935 212.348,179.935C200.967,179.935 192.749,169.211 195.418,158.316L179.725,158.316C166.393,178.522 179.487,207.561 205.487,208.896C202.573,224.285 214.439,238.469 229.988,238.469C235.605,238.469 240.794,236.602 244.968,233.457L244.968,201.952C244.968,196.88 250.668,193.878 254.849,196.755C259.59,200.018 266.17,196.885 266.57,191.121Z" style="fill:url(#_Linear5);fill-rule:nonzero;"/>
                    </g>
                </g>
            </g>
        </g>
    </g>
    <defs>
        <linearGradient id="_Linear2" x1="0" y1="0" x2="1" y2="0" gradientUnits="userSpaceOnUse" gradientTransform="matrix(1.04189e-14,-170.153,170.153,1.04189e-14,249.879,238.692)"><stop offset="0" style="stop-color:rgb(248,38,196);stop-opacity:1"/><stop offset="0.21" style="stop-color:rgb(249,87,141);stop-opacity:1"/><stop offset="0.51" style="stop-color:rgb(252,191,24);stop-opacity:1"/><stop offset="1" style="stop-color:rgb(40,204,255);stop-opacity:1"/></linearGradient>
        <linearGradient id="_Linear3" x1="0" y1="0" x2="1" y2="0" gradientUnits="userSpaceOnUse" gradientTransform="matrix(1.04189e-14,-170.153,170.153,1.04189e-14,250.012,238.666)"><stop offset="0" style="stop-color:rgb(248,38,196);stop-opacity:1"/><stop offset="0.21" style="stop-color:rgb(249,87,141);stop-opacity:1"/><stop offset="0.51" style="stop-color:rgb(252,191,24);stop-opacity:1"/><stop offset="1" style="stop-color:rgb(40,204,255);stop-opacity:1"/></linearGradient>
        <linearGradient id="_Linear4" x1="0" y1="0" x2="1" y2="0" gradientUnits="userSpaceOnUse" gradientTransform="matrix(1.04189e-14,-170.153,170.153,1.04189e-14,250.501,238.85)"><stop offset="0" style="stop-color:rgb(248,38,196);stop-opacity:1"/><stop offset="0.21" style="stop-color:rgb(249,87,141);stop-opacity:1"/><stop offset="0.51" style="stop-color:rgb(252,191,24);stop-opacity:1"/><stop offset="1" style="stop-color:rgb(40,204,255);stop-opacity:1"/></linearGradient>
        <linearGradient id="_Linear5" x1="0" y1="0" x2="1" y2="0" gradientUnits="userSpaceOnUse" gradientTransform="matrix(1.04189e-14,-170.153,170.153,1.04189e-14,250.015,238.469)"><stop offset="0" style="stop-color:rgb(248,38,196);stop-opacity:1"/><stop offset="0.21" style="stop-color:rgb(249,87,141);stop-opacity:1"/><stop offset="0.51" style="stop-color:rgb(252,191,24);stop-opacity:1"/><stop offset="1" style="stop-color:rgb(40,204,255);stop-opacity:1"/></linearGradient>
    </defs>
</svg>
